<?xml version="1.0" encoding="UTF-8" standalone="no"?><svg xmlns="http://www.w3.org/2000/svg" data-name="Ebene 1" id="Ebene_1" viewBox="0 0 113.39 39.69"><defs><style>.cls-1{fill:#fff;}.cls-2{fill:#c5c5c6;}.cls-3{fill:#002e99;}.cls-4{fill-rule:evenodd;}.cls-5{fill:#1a1a18;}</style></defs><rect class="cls-1" height="39.69" width="113.39"/><rect class="cls-2" height="17.01" width="113.39" y="22.68"/><path class="cls-3" d="M0,0V39.69H113.39V0ZM1.66,23.51H111.73V38H1.66Zm0-1.62V1.66H111.73V21.89Z"/><path class="cls-4" d="M13.51,4.4c-4.3,0-8.67.75-8.67,5.34,0,3.28,2.79,4.06,5.5,4.06h2c1,0,1.65,0,1.65.68s-1,.77-3.22.77a26.17,26.17,0,0,1-5.29-.62V18.8a32,32,0,0,0,7.24.59c4,0,8.57-.55,8.57-5.11,0-3-1.3-4.43-5.56-4.62h-2c-1.29,0-1.58-.32-1.58-.64s.53-.67,2.33-.73a27.83,27.83,0,0,1,6.31.58V5.06a49.12,49.12,0,0,0-7.27-.66Z"/><path class="cls-4" d="M38.16,5.1A39.9,39.9,0,0,0,31,4.4c-5,0-9.14,1.82-9.14,7.26,0,5.78,3.66,7.72,9.14,7.72a33.09,33.09,0,0,0,7.08-.77V13.85a26.53,26.53,0,0,1-5.68.65c-1.5,0-3.25-.17-3.25-2,0-2.06,1.08-2.58,3.95-2.55a20.59,20.59,0,0,1,5.05.72V5.1h0Z"/><polygon class="cls-4" points="39.46 18.96 46.55 18.96 46.55 14.62 50.24 14.62 50.24 18.96 57.33 18.96 57.33 4.82 50.24 4.82 50.24 9.94 46.55 9.94 46.55 4.82 39.46 4.82 39.46 18.96 39.46 18.96"/><polygon points="80.63 18.96 87.72 18.96 87.72 9.9 91.89 9.9 91.89 4.82 76.46 4.82 76.46 9.9 80.63 9.9 80.63 18.96 80.63 18.96"/><polygon class="cls-4" points="92.59 18.96 108.03 18.96 108.03 14.29 102.14 14.29 108.03 9.13 108.03 4.82 92.69 4.82 92.69 9.9 98.7 9.9 92.59 15.79 92.59 18.96 92.59 18.96"/><path d="M75.56,7.55h-6.9v6.1a1.34,1.34,0,0,1-1.07,1.57,1.4,1.4,0,0,1-.41,0,1.38,1.38,0,0,1-1.53-1.19,1.08,1.08,0,0,1,0-.4V7.55h-7.1v6.5c0,4.52,4.45,5.33,8.52,5.33,4.25,0,8.49-.81,8.49-5.33V7.55h0Z"/><polygon points="58.56 6.87 65.64 6.87 65.64 4.82 58.56 4.82 58.56 6.87 58.56 6.87"/><polygon points="68.64 6.87 75.56 6.87 75.56 4.82 68.64 4.82 68.64 6.87 68.64 6.87"/><path d="M5.43,26.44H8.17c1.66,0,2.36.68,2.36,2.41s-.78,2.49-2.38,2.49H7V35H5.43V26.45Zm2.19,3.72a1.08,1.08,0,0,0,1.32-.79,1,1,0,0,0,0-.49c0-1-.37-1.26-1.31-1.26H7v2.54Z"/><path d="M12.57,26.44h2.12l2,8.51H14.92l-.42-2.14H12.69L12.29,35H10.67Zm1.71,5.09L13.6,28l-.66,3.56Z"/><path d="M22.44,31.92v.32c0,2-.81,2.91-2.51,2.91a2.3,2.3,0,0,1-1.8-.64c-.72-.75-.78-2-.78-4a7.45,7.45,0,0,1,.4-3.21,2.19,2.19,0,0,1,2.14-1.11c1.72,0,2.45.86,2.47,2.84H20.87v-.2c0-.92-.29-1.36-.9-1.36-1,0-1,.89-1,3.06,0,2.38,0,3.3,1,3.3.75,0,1-.54,1-1.83v-.12h1.49Z"/><path d="M24,26.44h1.55V30l2-3.55H29.3L27.16,30l2.28,5H27.67l-1.52-3.53-.56.94v2.59H24V26.44Z"/><path d="M31.71,26.44h2.12l2,8.51H34.06l-.42-2.14H31.83L31.42,35H29.81Zm1.7,5.09L32.73,28l-.67,3.56h1.35Z"/><path d="M40.9,34a1.69,1.69,0,0,1-1.83,1.14c-2,0-2.41-1.47-2.41-4.72a6.15,6.15,0,0,1,.53-3.19,2.42,2.42,0,0,1,2.24-1c1.81,0,2.66.84,2.66,2.66v.22H40.61V29c0-1-.38-1.54-1.12-1.54-1.19,0-1.2,1-1.2,3.33,0,2.12.17,3,1.12,3s1.16-.58,1.16-1.89v-.29H39.44V30.31h2.61V35H41Z"/><path d="M43.93,26.44h1.58V35H43.93Z"/><path d="M47.42,26.44H49l2.21,5.93V26.44h1.49V35H51.08L48.86,29V35H47.42Z"/><path d="M58.54,34a1.69,1.69,0,0,1-1.83,1.14c-2,0-2.41-1.47-2.41-4.72a6.15,6.15,0,0,1,.53-3.19,2.42,2.42,0,0,1,2.24-1c1.81,0,2.66.84,2.66,2.66v.22H58.25V29c0-1-.38-1.54-1.12-1.54-1.19,0-1.2,1-1.2,3.33,0,2.12.17,3,1.12,3s1.12-.57,1.12-1.88v-.3H57.11V30.31h2.61V35H58.65Z"/><path d="M66.32,32v.54c0,.92.14,1.36.86,1.36a.92.92,0,0,0,1-.83v-.16a1.62,1.62,0,0,0-1-1.36l-.8-.57c-1.09-.76-1.62-1.2-1.62-2.41a2.16,2.16,0,0,1,2-2.29,2.26,2.26,0,0,1,.37,0,2.22,2.22,0,0,1,2.49,1.92,1.81,1.81,0,0,1,0,.52V29H68.12v-.19c0-.91-.27-1.28-1-1.28a.73.73,0,0,0-.8.85,1.5,1.5,0,0,0,1,1.19l.87.59a2.74,2.74,0,0,1,1.59,2.57,2.27,2.27,0,0,1-2,2.44,2.18,2.18,0,0,1-.51,0c-1.7,0-2.52-.87-2.52-2.68V32h1.63Z"/><path d="M72.42,31.33,70.2,26.39H72l1.25,3.29,1.26-3.2H76.2L74,31.42V35H72.42Z"/><path d="M78.27,32v.54c0,.92.14,1.36.86,1.36a.92.92,0,0,0,1-.83v-.16a1.62,1.62,0,0,0-1-1.36l-.81-.57c-1.08-.76-1.61-1.2-1.61-2.41a2.16,2.16,0,0,1,2-2.29,2.26,2.26,0,0,1,.37,0,2.22,2.22,0,0,1,2.5,1.91,1.88,1.88,0,0,1,0,.53V29H80.07v-.19c0-.91-.27-1.28-1-1.28a.73.73,0,0,0-.8.85,1.5,1.5,0,0,0,1,1.19l.87.59a2.74,2.74,0,0,1,1.59,2.57,2.27,2.27,0,0,1-2,2.44,2.18,2.18,0,0,1-.51,0c-1.7,0-2.52-.87-2.52-2.68V32h1.63Z"/><path d="M84.11,27.84H82.29v-1.4H87.5v1.4H85.69V35H84.11Z"/><path d="M88.74,26.44h4.35v1.41H90.27v2h2.6v1.34h-2.6v2.34h2.85V35H88.74Z"/><path d="M94.65,26.44H97L98.19,32l1.17-5.51h2.37V35h-1.51V27.4L98.65,35h-1L96.08,27.4V35H94.65Z"/><path class="cls-5" d="M104.7,32v.54c0,.92.15,1.36.87,1.36a.91.91,0,0,0,1-.83.43.43,0,0,0,0-.16,1.6,1.6,0,0,0-1-1.36l-.81-.57c-1.09-.76-1.62-1.2-1.62-2.41a2.16,2.16,0,0,1,2-2.29,2.32,2.32,0,0,1,.37,0A2.21,2.21,0,0,1,108,28.16a1.88,1.88,0,0,1,0,.53,1.61,1.61,0,0,1,0,.31h-1.54v-.19c0-.91-.26-1.28-1-1.28a.75.75,0,0,0-.81.7.38.38,0,0,0,0,.15,1.51,1.51,0,0,0,1,1.19l.86.59a2.74,2.74,0,0,1,1.59,2.57,2.25,2.25,0,0,1-2,2.44,2.07,2.07,0,0,1-.5,0c-1.71,0-2.53-.87-2.53-2.68V32h1.65Z"/></svg>